<svg width="16" height="10" viewBox="0 0 16 10" fill="none" xmlns="http://www.w3.org/2000/svg">
<path fill-rule="evenodd" clip-rule="evenodd" d="M15.7743 8.19189C15.7551 8.1505 15.7372 8.11618 15.7206 8.08867C15.4454 7.59313 14.9196 6.98489 14.1435 6.26378L14.1271 6.24727L14.1189 6.23917L14.1106 6.23087H14.1023C13.75 5.89508 13.527 5.66931 13.4336 5.55371C13.2626 5.33352 13.2244 5.11063 13.3178 4.8848C13.3838 4.71417 13.6317 4.35383 14.0609 3.80329C14.2867 3.51152 14.4655 3.27767 14.5975 3.1015C15.5499 1.83539 15.9628 1.02633 15.8361 0.674002L15.7869 0.591668C15.7538 0.542099 15.6685 0.496753 15.5311 0.455398C15.3933 0.41413 15.2172 0.407305 15.0025 0.434807L12.6246 0.451234C12.5861 0.437584 12.5311 0.438856 12.4594 0.455398C12.3878 0.47194 12.352 0.48024 12.352 0.48024L12.3106 0.500918L12.2778 0.52576C12.2503 0.542186 12.22 0.571077 12.1869 0.612374C12.154 0.653527 12.1265 0.701823 12.1046 0.756857C11.8457 1.42291 11.5513 2.04217 11.221 2.6146C11.0173 2.95594 10.8302 3.25176 10.6594 3.50224C10.4888 3.75262 10.3457 3.9371 10.2302 4.05535C10.1145 4.17372 10.0101 4.26855 9.91634 4.34018C9.82273 4.41185 9.75127 4.44213 9.70179 4.43105C9.65219 4.41997 9.60548 4.40898 9.56127 4.39799C9.48425 4.34843 9.42231 4.28101 9.3756 4.1957C9.32869 4.11039 9.29711 4.00301 9.2806 3.87365C9.26417 3.74421 9.25446 3.63287 9.25168 3.53925C9.24911 3.44576 9.25029 3.31351 9.25587 3.14288C9.2616 2.97217 9.26417 2.85666 9.26417 2.7961C9.26417 2.5869 9.26825 2.35985 9.27643 2.1149C9.28476 1.86995 9.2915 1.67587 9.29714 1.53289C9.30275 1.38977 9.30536 1.23834 9.30536 1.0787C9.30536 0.919068 9.29564 0.793875 9.27643 0.703009C9.25746 0.612259 9.22834 0.524169 9.18997 0.438769C9.15136 0.353456 9.09485 0.287461 9.0207 0.240611C8.9464 0.193819 8.85403 0.156686 8.74411 0.129097C8.45234 0.0630732 8.08081 0.0273573 7.62934 0.0218047C6.60555 0.0108152 5.94772 0.0769257 5.65597 0.220049C5.54038 0.280521 5.43578 0.363144 5.34225 0.46766C5.24315 0.588805 5.22932 0.654915 5.30087 0.665789C5.63119 0.715271 5.86504 0.833639 6.00266 1.02078L6.05226 1.11994C6.09084 1.19149 6.12936 1.31816 6.16791 1.49978C6.2064 1.68139 6.23125 1.8823 6.24218 2.10238C6.26965 2.50427 6.26965 2.8483 6.24218 3.13449C6.21462 3.4208 6.18859 3.64368 6.16375 3.80332C6.13891 3.96296 6.10177 4.09231 6.05226 4.19136C6.00266 4.29044 5.96967 4.351 5.95312 4.37298C5.93661 4.39496 5.92285 4.40881 5.91191 4.41425C5.84037 4.44166 5.76596 4.45563 5.68894 4.45563C5.61181 4.45563 5.51829 4.41705 5.40822 4.33995C5.29818 4.26285 5.18398 4.15695 5.06561 4.02207C4.94724 3.88716 4.81375 3.69863 4.66507 3.45646C4.51651 3.21428 4.36237 2.92806 4.20273 2.5978L4.07065 2.35829C3.98809 2.2042 3.8753 1.97984 3.73218 1.68541C3.58897 1.39086 3.46238 1.10595 3.35235 0.830718C3.30836 0.715126 3.24228 0.627123 3.15422 0.566566L3.11289 0.541723C3.08542 0.519745 3.04131 0.496406 2.98081 0.471535C2.92023 0.446693 2.85701 0.428879 2.7909 0.417918L0.528537 0.434345C0.297353 0.434345 0.140492 0.486718 0.0578973 0.591321L0.024842 0.640803C0.00832888 0.668363 0 0.712379 0 0.772966C0 0.833524 0.0165132 0.907847 0.0495684 0.99585C0.379832 1.77206 0.738986 2.52064 1.12703 3.24173C1.51508 3.96281 1.85228 4.54366 2.13844 4.98376C2.42466 5.42418 2.7164 5.83985 3.01367 6.23055C3.31093 6.6214 3.5077 6.87187 3.60398 6.98191C3.70037 7.09216 3.77608 7.17458 3.83111 7.22961L4.03757 7.42774C4.16967 7.55988 4.36367 7.71812 4.61964 7.90249C4.87566 8.08697 5.15911 8.26858 5.47011 8.44762C5.78117 8.62638 6.14304 8.77225 6.55593 8.88506C6.96876 8.998 7.37057 9.04331 7.76142 9.02145H8.71097C8.90354 9.00482 9.04944 8.94426 9.14861 8.83975L9.18146 8.79836C9.20356 8.76551 9.22424 8.71447 9.24332 8.64578C9.26264 8.57698 9.27224 8.50118 9.27224 8.41873C9.2666 8.18208 9.28462 7.9688 9.3258 7.77891C9.36695 7.58908 9.41386 7.44596 9.46632 7.34957C9.51875 7.25327 9.57792 7.172 9.64377 7.10612C9.70977 7.0401 9.75679 7.00011 9.78438 6.98634C9.8118 6.97249 9.83369 6.96309 9.8502 6.95745C9.98231 6.91343 10.1378 6.95606 10.3169 7.08553C10.4958 7.21489 10.6636 7.37462 10.8206 7.56444C10.9775 7.75445 11.166 7.96761 11.3861 8.20426C11.6064 8.441 11.799 8.61698 11.9641 8.73274L12.1291 8.83182C12.2394 8.89793 12.3825 8.95849 12.5587 9.01353C12.7345 9.06853 12.8886 9.0823 13.0209 9.05479L15.1346 9.02182C15.3436 9.02182 15.5063 8.98721 15.6217 8.91852C15.7373 8.84972 15.806 8.77392 15.8282 8.69147C15.8503 8.60894 15.8514 8.5153 15.8324 8.41061C15.8128 8.30618 15.7935 8.23316 15.7743 8.19189Z" fill="#6E7178"/>
</svg>
